PathFileType	4	(X/Y/Z)	4_coords_data.trc
DataRate	CameraRate	NumFrames	NumMarkers	Units	OrigDataRate	OrigDataStartFrame	OrigNumFrames
30.0	30.0	6	21	m	30.0	1	50
Frame#	Time	THUMB_TIP	THUMB_IP	THUMB_MCP	THUMB_CMC	INDEX_TIP	INDEX_DIP	INDEX_PIP	INDEX_MCP	MIDDLE_TIP	MIDDLE_DIP	MIDDLE_PIP	MIDDLE_MCP	RING_TIP	RING_DIP	RING_PIP	RING_MCP	PINKY_TIP	PINKY_DIP	PINKY_PIP	PINKY_MCP	WRIST
X1	Y1	Z1	X2	Y2	Z2	X3	Y3	Z3	X4	Y4	Z4	X5	Y5	Z5	X6	Y6	Z6	X7	Y7	Z7	X8	Y8	Z8	X9	Y9	Z9	X10	Y10	Z10	X11	Y11	Z11	X12	Y12	Z12	X13	Y13	Z13	X14	Y14	Z14	X15	Y15	Z15	X16	Y16	Z16	X17	Y17	Z17	X18	Y18	Z18	X19	Y19	Z19	X20	Y20	Z20	X21	Y21	Z21
0	-2.749317978547796e-18	0.5035966044263991	-0.020292843923916837	-0.16654132077990863	0.4981337699598406	-0.022421742752690377	-0.14432364247258256	0.4765482831369525	-0.026525215997419305	-0.12227714012076457	0.47372966861648724	-0.027956860645145687	-0.07778112000898763	0.5735228815341482	0.015306058273343748	-0.15928154404146022	0.5574257968148569	0.018476602324195235	-0.1516113736416861	0.5353143899877145	0.020318726058186742	-0.13979180929805382	0.4988671619296744	0.014082940065371585	-0.11866479734801616	0.5927804252923343	0.03291542586685581	-0.14136506202933988	0.5765044806127998	0.030332724786963805	-0.1338535189175249	0.5502615973352887	0.027142307895982043	-0.12158396850421832	0.5110368937486979	0.01953808836122717	-0.10159030963918503	0.5995998166992265	0.0247168281129152	-0.11336826992255022	0.5833889873738506	0.026974961389235164	-0.10581116421401948	0.5606684181256953	0.028573180781674368	-0.09574133766072579	0.5238372366726861	0.01764392253382774	-0.08314228131005436	0.5971729732176891	0.004962265833645341	-0.07936154164811954	0.5829148501416943	0.010399489645251947	-0.0716063805555131	0.5636300354768923	0.016254155452732122	-0.06572158398919442	0.5293959688189486	0.004915847848368182	-0.06512583930538407	0.4622830810018608	-0.023011742144276925	-0.051989820119430985
1	0.03333333333333339	0.4997921861879	-0.021676146422762277	-0.16794044142171244	0.495870918482492	-0.024030679231394125	-0.14542200819833745	0.47542376228954764	-0.02718202469887865	-0.12216684048520526	0.4738931906228566	-0.028471633785380313	-0.0776035791730309	0.5725218538633614	0.01914024370528422	-0.16424516223475635	0.5567252118037451	0.01979735114143999	-0.15541145919142785	0.5352720595599537	0.018947741523202444	-0.14233284094249538	0.5002498192787119	0.01149906604420281	-0.11927647493890514	0.5937899485619854	0.03121167949718573	-0.14334118942446347	0.5777990104505272	0.02762197841422831	-0.13563379398563158	0.5518960228739729	0.02338968926852314	-0.12296365139779838	0.5130305253011247	0.016649565636416286	-0.10198290420331468	0.601022383911925	0.02592503924676859	-0.11507625880794453	0.5846563754470036	0.02590097470294883	-0.10751628606832098	0.5618221532611265	0.02545927707584117	-0.09758737981575666	0.5252968813420029	0.014500960234236637	-0.0841508386971096	0.5988839747886018	0.008637491698235022	-0.07975927331008681	0.5836767222020687	0.012261669376744777	-0.07278755867708792	0.5637671196036513	0.015723865389281833	-0.06709256595155572	0.5297050695664757	0.003969112379270223	-0.06551586688750505	0.4622830810018609	-0.023011742144276925	-0.051989820119430985
2	0.06666666666666676	0.49599640371596576	-0.02280240373634268	-0.16908826247987688	0.4936377789877133	-0.025363349689392245	-0.14637530482974162	0.4743516647520186	-0.02772126307604439	-0.12205851963620135	0.47397978119794637	-0.02890571283245147	-0.07746761494256726	0.5709087722998386	0.022376767548028753	-0.16815728480480588	0.5557002160428423	0.02079534643440073	-0.15845167179793462	0.5350940375420142	0.017611575451181416	-0.14440678508004234	0.5013924016787454	0.00914290831861475	-0.11978733116373017	0.594299462025595	0.030246998313810725	-0.14490124782429684	0.5786117957152991	0.025717980108534766	-0.13706638216922087	0.5530621343651566	0.020421076810363648	-0.12408304013633675	0.5145384444618509	0.014168572273707714	-0.10233495000747594	0.6017100311008622	0.027252577190739258	-0.11623440698809212	0.5854131911813655	0.025283274480450424	-0.1087822357961809	0.562608474243873	0.022990150124065134	-0.09904229508347628	0.5263721343339085	0.011889576158289561	-0.08495592714990813	0.6000014578024282	0.011811519281531124	-0.07951304759360395	0.5841380800103847	0.013774207315885412	-0.07338923336497938	0.5638804552963632	0.0151898354141915	-0.06805663015143065	0.5299604060278941	0.0031205244598438986	-0.06590130147303902	0.4622830810018608	-0.023011742144276925	-0.051989820119430985
3	0.10000000000000014	0.4922666235268649	-0.02369545657217098	-0.17000587130181682	0.4914780886385368	-0.026442778320702298	-0.14720608104094082	0.4733523254007619	-0.028153113418226017	-0.12196026037885277	0.4740028957871266	-0.029266760691718074	-0.0773707263162206	0.5690303189868746	0.024888863423244256	-0.17115008951544947	0.5545411927782553	0.02146007499781033	-0.1608394817911535	0.5348427772709174	0.01634477059693884	-0.14608089376971	0.5023190611088952	0.007029364971768981	-0.12021456045687323	0.594460655549735	0.029901937878627716	-0.14609113745954483	0.5790818126376642	0.024511470771135024	-0.13818961513477176	0.5538885461309306	0.018160106092135253	-0.12498472818201622	0.515667872110777	0.012049916734545474	-0.10266895832167866	0.6019108642313126	0.028604483757142307	-0.11695035701832945	0.5858109580475158	0.025029572214679385	-0.10966935239420572	0.5631382573246857	0.02109811049220711	-0.10014715571183674	0.5271597128677136	0.00975073528319248	-0.08560403883052409	0.6006900503600011	0.014416634673062534	-0.0787963523356825	0.5844138321882052	0.01493193718892094	-0.07352196276519629	0.563988496064634	0.014670770445107673	-0.06866918467722799	0.5301680881561944	0.0023689049277181295	-0.06627595157140037	0.4622830810018609	-0.023011742144276925	-0.051989820119430985
4	0.13333333333333353	0.4886581236055486	-0.024381135579372826	-0.17071267243314436	0.48942660713778485	-0.027293432639117432	-0.1479326821149619	0.47244003722535666	-0.028488055304846882	-0.1218779451311289	0.4739749601700177	-0.02956179925322322	-0.07730910976955274	0.5671583891050371	0.02669909388182179	-0.17340291465165514	0.5533894575299483	0.02183063475783298	-0.16269242311118082	0.5345638402062903	0.015175220267256484	-0.1474178879843164	0.5030553665876133	0.005165292346209105	-0.12057289725538195	0.5943872614056431	0.03005661132564741	-0.1469522924482229	0.5793110619519443	0.02388896262409912	-0.1390359599939498	0.5544654622651669	0.016524361158471668	-0.12569922983034174	0.5165000378839031	0.010252913336768366	-0.10299585090186064	0.6018146355193533	0.029932716188109998	-0.1173149205034344	0.585968120408792	0.025059564079843222	-0.11023393558744665	0.5634911576188596	0.01971036570442597	-0.10094134717084124	0.5277306721378717	0.008027358537537554	-0.08612865478550813	0.6010949953694203	0.016464212257948807	-0.07774934031887276	0.5845859090630394	0.015768130446739304	-0.07328105883260017	0.5640969090484308	0.014179754066241723	-0.06898106373083002	0.5303338023176297	0.001712758054537411	-0.06663370663641938	0.462283081001861	-0.023011742144276925	-0.051989820119430985
5	0.1666666666666669	0.48522509569549277	-0.02488594914829967	-0.17122850559388414	0.48751144681602343	-0.027940402203125658	-0.14856922680815238	0.471624171161539	-0.028736643743863644	-0.12181515288122996	0.47390763599523933	-0.029797267281787	-0.07727807994121672	0.5654660318375977	0.02791030616112611	-0.17508641459561652	0.552337143471486	0.02196847844428662	-0.1641170493608559	0.5342897635203597	0.014123484184807356	-0.1484723066346738	0.5036269779482888	0.003551168654304826	-0.12087419403100652	0.5941637643800038	0.03059713367704886	-0.1475239000053433	0.5793738446077019	0.023739744309045796	-0.13963501642244838	0.554855318428938	0.015429779859560067	-0.12624860858204706	0.5170974790121527	0.00874283763778494	-0.10331875277572106	0.6015565479229867	0.031212665011724372	-0.11740345105213307	0.5859732972110869	0.025304715532355804	-0.11052897433027953	0.5637225024822736	0.0187536347632693	-0.10146445814390126	0.5281373826923967	0.0066671560533051455	-0.08655348513964345	0.6013253963942288	0.01800958512323625	-0.07647859810951674	0.5847043473366342	0.016331734508061246	-0.07274690338215867	0.56420373541969	0.013725974213892878	-0.06903921632414206	0.5304628163231959	0.0011503610256822228	-0.06696852019376864	0.4622830810018609	-0.023011742144276925	-0.051989820119430985
